<svg width="24px" height="24px" version="1.1" id="Icons" xmlns="http://www.w3.org/2000/svg"
	xmlns:xlink="http://www.w3.org/1999/xlink" viewBox="0 0 32 32" xml:space="preserve" fill="#ffffff">
	<g>
		<path d="M16,21c-1.3,0-2.6-0.5-3.5-1.5C11.5,18.6,11,17.3,11,16s0.5-2.6,1.5-3.5c1.9-1.9,5.1-1.9,7.1,0c0.9,0.9,1.5,2.2,1.5,3.5
		s-0.5,2.6-1.5,3.5l0,0l0,0C18.6,20.5,17.3,21,16,21z" />
	</g>
	<path d="M11.1,20.9c-0.9-0.9-1.6-2.1-1.9-3.4c-2.7,2.4-5.6,4.7-8.6,6.8c-0.2,0.2-0.4,0.4-0.4,0.7c0,0.3,0.1,0.6,0.3,0.8l5.7,5.7
	c0.2,0.2,0.4,0.3,0.7,0.3c0,0,0.1,0,0.1,0c0.3,0,0.6-0.2,0.7-0.4c2.1-3,4.4-5.9,6.8-8.6C13.2,22.5,12,21.9,11.1,20.9z" />
	<path d="M31.5,6.1l-5.7-5.7c-0.2-0.2-0.5-0.3-0.8-0.3c-0.3,0-0.6,0.2-0.7,0.4c-2.1,3-4.4,5.9-6.8,8.6c1.3,0.3,2.4,0.9,3.4,1.9
	c0.9,0.9,1.6,2.1,1.9,3.4c2.7-2.4,5.6-4.7,8.6-6.8c0.2-0.2,0.4-0.4,0.4-0.7C31.9,6.6,31.7,6.3,31.5,6.1z" />
</svg>